<svg width="11" height="11" viewBox="0 0 11 11" fill="none" xmlns="http://www.w3.org/2000/svg">
<path d="M10.7412 4.24753L9.89574 4.06374C9.82222 3.83865 9.73116 3.61911 9.62366 3.40762L10.0917 2.67959C10.1753 2.54951 10.1569 2.37872 10.0476 2.26945L8.73055 0.952362C8.62128 0.843094 8.45049 0.824715 8.32041 0.908302L7.59238 1.37634C7.38089 1.26884 7.16135 1.17778 6.93626 1.10426L6.75247 0.25882C6.71966 0.107758 6.58588 0 6.4313 0H4.5687C4.41412 0 4.28034 0.107758 4.24753 0.25882L4.06374 1.10426C3.83865 1.17778 3.61911 1.26884 3.40762 1.37634L2.67959 0.908302C2.54951 0.824715 2.37872 0.843094 2.26945 0.952362L0.952362 2.26945C0.843094 2.37872 0.824715 2.54951 0.908302 2.67959L1.37634 3.40762C1.26884 3.61911 1.17778 3.83865 1.10426 4.06374L0.25882 4.24753C0.107758 4.28043 0 4.41412 0 4.5687V6.4313C0 6.58588 0.107758 6.71957 0.25882 6.75247L1.10426 6.93626C1.17778 7.16135 1.26884 7.38089 1.37634 7.59238L0.908302 8.32041C0.824715 8.45049 0.843094 8.62128 0.952362 8.73055L2.26945 10.0476C2.37872 10.1569 2.54951 10.1753 2.67959 10.0917L3.40762 9.62366C3.61911 9.73116 3.83865 9.82222 4.06374 9.89574L4.24753 10.7412C4.28034 10.8922 4.41412 11 4.5687 11H6.4313C6.58588 11 6.71966 10.8922 6.75247 10.7412L6.93626 9.89574C7.16135 9.82222 7.38089 9.73116 7.59238 9.62366L8.32041 10.0917C8.45049 10.1753 8.62128 10.157 8.73055 10.0476L10.0476 8.73055C10.1569 8.62128 10.1753 8.45049 10.0917 8.32041L9.62366 7.59238C9.73116 7.38089 9.82222 7.16135 9.89574 6.93626L10.7412 6.75247C10.8922 6.71957 11 6.58588 11 6.4313V4.5687C11 4.41412 10.8922 4.28043 10.7412 4.24753ZM7.47211 5.5C7.47211 6.58739 6.58739 7.47211 5.5 7.47211C4.41261 7.47211 3.52789 6.58739 3.52789 5.5C3.52789 4.41261 4.41261 3.52789 5.5 3.52789C6.58739 3.52789 7.47211 4.41261 7.47211 5.5Z" fill="#C2CBD6"/>
</svg>
