<svg width="71" height="15" viewBox="0 0 71 15" fill="none" xmlns="http://www.w3.org/2000/svg">
<path d="M3.7 14.24C2.19333 14.24 1 13.8067 0.12 12.94L1.36 10.76C2.02667 11.4 2.73333 11.72 3.48 11.72C4.10667 11.72 4.60667 11.5267 4.98 11.14C5.36667 10.7533 5.56 10.2333 5.56 9.58V0.659999H8.4V9.62C8.4 11.14 7.97333 12.2933 7.12 13.08C6.26667 13.8533 5.12667 14.24 3.7 14.24ZM15.5266 14.24C14.0332 14.24 12.7999 13.7733 11.8266 12.84C10.8532 11.9067 10.3666 10.68 10.3666 9.16C10.3666 7.73333 10.8332 6.53333 11.7666 5.56C12.7132 4.58667 13.9132 4.1 15.3666 4.1C16.8066 4.1 17.9732 4.59333 18.8666 5.58C19.7599 6.55333 20.2066 7.83333 20.2066 9.42V9.98H13.0266C13.1066 10.62 13.3932 11.1533 13.8866 11.58C14.3799 12.0067 15.0199 12.22 15.8066 12.22C16.2332 12.22 16.6932 12.1333 17.1866 11.96C17.6932 11.7867 18.0932 11.5533 18.3866 11.26L19.5066 12.9C18.5332 13.7933 17.2066 14.24 15.5266 14.24ZM17.7466 8.26C17.7066 7.71333 17.4866 7.22 17.0866 6.78C16.6999 6.34 16.1266 6.12 15.3666 6.12C14.6466 6.12 14.0866 6.34 13.6866 6.78C13.2866 7.20667 13.0532 7.7 12.9866 8.26H17.7466ZM25.2813 14.24C24.3879 14.24 23.7079 14.0133 23.2413 13.56C22.7746 13.1067 22.5413 12.4533 22.5413 11.6V6.56H20.9413V4.34H22.5413V1.7H25.1013V4.34H27.0613V6.56H25.1013V10.92C25.1013 11.2267 25.1813 11.48 25.3413 11.68C25.5013 11.88 25.7146 11.98 25.9813 11.98C26.3813 11.98 26.6746 11.8867 26.8613 11.7L27.4013 13.62C26.9346 14.0333 26.2279 14.24 25.2813 14.24ZM37.3391 14H28.8591V0.659999H31.6991V11.5H37.3391V14ZM43.593 14.24C42.0996 14.24 40.8663 13.7733 39.893 12.84C38.9196 11.9067 38.433 10.68 38.433 9.16C38.433 7.73333 38.8996 6.53333 39.833 5.56C40.7796 4.58667 41.9796 4.1 43.433 4.1C44.873 4.1 46.0396 4.59333 46.933 5.58C47.8263 6.55333 48.273 7.83333 48.273 9.42V9.98H41.093C41.173 10.62 41.4596 11.1533 41.953 11.58C42.4463 12.0067 43.0863 12.22 43.873 12.22C44.2996 12.22 44.7596 12.1333 45.253 11.96C45.7596 11.7867 46.1596 11.5533 46.453 11.26L47.573 12.9C46.5996 13.7933 45.273 14.24 43.593 14.24ZM45.813 8.26C45.773 7.71333 45.553 7.22 45.153 6.78C44.7663 6.34 44.193 6.12 43.433 6.12C42.713 6.12 42.153 6.34 41.753 6.78C41.353 7.20667 41.1196 7.7 41.053 8.26H45.813ZM59.1677 14H56.6277V8.16C56.6277 6.96 56.0343 6.36 54.8477 6.36C53.9277 6.36 53.1943 6.74 52.6477 7.5V14H50.1077V4.34H52.6477V5.6C53.4877 4.6 54.6143 4.1 56.0277 4.1C57.0677 4.1 57.8477 4.37333 58.3677 4.92C58.901 5.46667 59.1677 6.22 59.1677 7.18V14ZM70.8897 14H68.3297V12.76C67.543 13.7467 66.5497 14.24 65.3497 14.24C64.0964 14.24 63.0697 13.7933 62.2697 12.9C61.4697 11.9933 61.0697 10.7533 61.0697 9.18C61.0697 7.63333 61.4697 6.4 62.2697 5.48C63.0697 4.56 64.0964 4.1 65.3497 4.1C66.5764 4.1 67.5697 4.59333 68.3297 5.58V0.659999H70.8897V14ZM66.1297 11.98C66.5564 11.98 66.9764 11.88 67.3897 11.68C67.803 11.4667 68.1164 11.2 68.3297 10.88V7.46C68.1164 7.14 67.803 6.88 67.3897 6.68C66.9764 6.46667 66.5564 6.36 66.1297 6.36C65.4097 6.36 64.823 6.62 64.3697 7.14C63.9164 7.66 63.6897 8.34 63.6897 9.18C63.6897 10.0067 63.9164 10.68 64.3697 11.2C64.823 11.72 65.4097 11.98 66.1297 11.98Z" fill="#000C25"/>
</svg>
