<svg width="17" height="17" viewBox="0 0 17 17" version="1.1" xmlns="http://www.w3.org/2000/svg" xmlns:xlink="http://www.w3.org/1999/xlink" xml:space="preserve" xmlns:serif="http://www.serif.com/" style="fill-rule:evenodd;clip-rule:evenodd;stroke-linejoin:round;stroke-miterlimit:2;"><path id="Vector" d="M8.502,0l-0.004,0c-4.687,0 -8.498,3.812 -8.498,8.5c0,1.859 0.599,3.583 1.618,4.982l-1.059,3.158l3.267,-1.045c1.344,0.891 2.947,1.405 4.676,1.405c4.687,0 8.498,-3.813 8.498,-8.5c0,-4.687 -3.811,-8.5 -8.498,-8.5Z" style="fill:#4caf50;fill-rule:nonzero;"/><path id="Vector1" serif:id="Vector" d="M13.448,11.93c-0.205,0.579 -1.019,1.059 -1.668,1.199c-0.444,0.095 -1.024,0.17 -2.977,-0.639c-2.498,-1.035 -4.107,-3.574 -4.232,-3.738c-0.12,-0.165 -1.009,-1.344 -1.009,-2.564c0,-1.22 0.619,-1.814 0.869,-2.069c0.205,-0.209 0.544,-0.305 0.869,-0.305c0.105,0 0.2,0.006 0.285,0.01c0.249,0.01 0.375,0.025 0.539,0.419c0.205,0.495 0.705,1.714 0.764,1.84c0.061,0.125 0.121,0.295 0.036,0.46c-0.079,0.17 -0.149,0.245 -0.275,0.39c-0.125,0.144 -0.244,0.255 -0.37,0.41c-0.114,0.135 -0.244,0.279 -0.099,0.529c0.144,0.244 0.643,1.059 1.379,1.714c0.948,0.844 1.718,1.114 1.993,1.229c0.205,0.085 0.449,0.065 0.599,-0.095c0.19,-0.205 0.425,-0.545 0.664,-0.879c0.17,-0.24 0.385,-0.27 0.61,-0.185c0.23,0.08 1.444,0.68 1.694,0.804c0.249,0.126 0.414,0.185 0.475,0.29c0.059,0.105 0.059,0.599 -0.146,1.18Z" style="fill:#fafafa;fill-rule:nonzero;"/></svg>