<svg width="9" height="10" viewBox="0 0 9 10" fill="none" xmlns="http://www.w3.org/2000/svg">
<path d="M5.60366e-06 2.70833L5.67651e-06 1.04166C5.70166e-06 0.466366 0.457892 -3.73387e-07 1.02272 -3.48698e-07L2.6591 -2.7717e-07C3.23695 0.00167943 3.79083 0.23539 4.20055 0.650409L8.12208 4.64458C8.20333 4.72452 8.20559 4.8564 8.12711 4.93917C8.04862 5.02194 7.91914 5.02423 7.83787 4.94429C7.83617 4.94261 7.8345 4.94091 7.83285 4.93917L3.91132 0.944998C3.57848 0.60785 3.12851 0.418007 2.6591 0.416659L1.02274 0.416659C0.683845 0.416659 0.409108 0.696483 0.409108 1.04166L0.409108 2.70831C0.407804 3.18697 0.594599 3.64622 0.927841 3.98372L6.0517 9.20246C6.55041 9.71014 7.3587 9.71014 7.85741 9.20246L8.217 8.83621C8.69855 8.32125 8.69855 7.512 8.217 6.99706L3.62208 2.31709C3.47489 2.16791 3.27584 2.0839 3.06818 2.08334L2.24999 2.08334C2.13703 2.08334 2.04544 2.17662 2.04544 2.29168L2.04544 3.12499C2.04604 3.33648 2.12851 3.53921 2.27494 3.68915L5.66752 7.14456C5.74877 7.2245 5.75103 7.35637 5.67255 7.43915C5.59406 7.5219 5.46458 7.52419 5.38331 7.44426C5.38161 7.44258 5.37994 7.44088 5.37829 7.43915L1.98573 3.98374C1.76281 3.75552 1.63726 3.44693 1.63636 3.12499L1.63636 2.29166C1.63636 1.94648 1.9111 1.66666 2.24999 1.66666L3.06818 1.66666C3.38428 1.66748 3.68728 1.79535 3.91132 2.0225L8.50622 6.70249C9.16459 7.37305 9.16459 8.46024 8.50624 9.1308C8.50624 9.1308 8.50624 9.1308 8.50622 9.13082L8.14663 9.49707C7.48825 10.1676 6.42084 10.1676 5.76246 9.49709C5.76246 9.49709 5.76246 9.49709 5.76244 9.49707L0.638589 4.27833C0.228642 3.86271 -0.00127998 3.29747 5.60366e-06 2.70833Z" fill="white"/>
</svg>
